<?xml version="1.0" encoding="UTF-8"?>
<svg id="Layer_2" data-name="Layer 2" xmlns="http://www.w3.org/2000/svg" xmlns:xlink="http://www.w3.org/1999/xlink" viewBox="0 0 744.32 598.9">
  <defs>
    <style>
      .cls-1 {
        fill: #fff;
      }

      .cls-1, .cls-2, .cls-3, .cls-4, .cls-5 {
        stroke-miterlimit: 10;
        stroke-width: 4px;
      }

      .cls-1, .cls-3, .cls-4 {
        stroke: #3c2415;
      }

      .cls-2 {
        fill: none;
        stroke-linecap: round;
      }

      .cls-2, .cls-5 {
        stroke: #3b2416;
      }

      .cls-3 {
        fill: url(#linear-gradient-3);
      }

      .cls-4 {
        fill: url(#linear-gradient-2);
      }

      .cls-6 {
        fill: #0d0d0d;
      }

      .cls-7 {
        opacity: .19;
      }

      .cls-8 {
        fill: #008693;
      }

      .cls-5 {
        fill: url(#linear-gradient);
      }

      .cls-9 {
        fill: #231f20;
      }

      .cls-10 {
        fill: url(#linear-gradient-4);
      }

      .cls-11 {
        fill: #f1583e;
      }
    </style>
    <linearGradient id="linear-gradient" x1="338" y1="339.73" x2="802.53" y2="930.32" gradientUnits="userSpaceOnUse">
      <stop offset="0" stop-color="#eab692"/>
      <stop offset="1" stop-color="#c57773"/>
    </linearGradient>
    <linearGradient id="linear-gradient-2" x1="242.24" y1="213.02" x2="402.88" y2="357.15" gradientUnits="userSpaceOnUse">
      <stop offset="0" stop-color="#eab692"/>
      <stop offset=".91" stop-color="#c57773"/>
    </linearGradient>
    <linearGradient id="linear-gradient-3" x1="544.05" y1="242.5" x2="518.5" y2="369.21" gradientUnits="userSpaceOnUse">
      <stop offset="0" stop-color="#eab692"/>
      <stop offset=".64" stop-color="#c57773"/>
    </linearGradient>
    <linearGradient id="linear-gradient-4" x1="860.86" y1="581.99" x2="270.66" y2="259.94" gradientUnits="userSpaceOnUse">
      <stop offset="0" stop-color="#a7a9ac"/>
      <stop offset=".84" stop-color="#fff"/>
    </linearGradient>
  </defs>
  <g id="Layer_2-2" data-name="Layer 2">
    <g>
      <g>
        <path class="cls-6" d="m400.6,598.9c-131.11,0-243.78-55.43-275.18-135.07-8.24-13.21-12.89-29.18-13.99-48.29l-15.1,7.38-6.39-23.27c-6.35-23.11-8.39-43.51-6.11-61.68-13.22-1.6-24.63-4.58-34.52-9.01l-21-9.39,12.23-19.49c19.52-31.11,42.77-54.94,69.45-71.24-11.88-4.12-24.95-7.84-39.15-11.14l-27.94-6.49,15.75-23.97c24.86-37.84,62.92-59.79,113.36-65.46l-17.32-10.28,31.89-16.59c36.01-18.74,72.34-28.24,107.97-28.24,40.05,0,79.86,11.97,118.53,35.61,35.26-21.76,65.64-28.32,92.75-34.18,25.63-5.54,47.76-10.32,70.81-27.32l16.92-12.48,11.62,17.53c15.38,23.2,22.77,47.44,21.98,72.03-.43,13.44-3.42,26.74-8.78,39.39,52.29,12.76,91.62,35.2,117.13,66.89l8.83,10.97-7.35,12.01c-6.22,10.16-15.2,19.15-26.81,26.87,12.25,23.03,18.59,46.42,18.46,68.58l-.14,23.2-22.93-3.56c-4.13-.64-8.46-1.62-12.97-2.75-1.16,16.34-4.27,30.68-9.39,43.31.78,5.52,1.18,11.07,1.18,16.56,0,49.9-30.86,96.04-86.91,129.95-52.9,32-122.82,49.63-196.87,49.63Z"/>
        <path class="cls-6" d="m372.29,570.6c-131.11,0-243.78-55.43-275.18-135.07-8.24-13.21-12.89-29.18-13.99-48.29l-15.1,7.38-6.39-23.27c-6.35-23.11-8.39-43.51-6.11-61.68-13.22-1.6-24.63-4.58-34.52-9.01l-21-9.39,12.23-19.49c19.52-31.11,42.77-54.94,69.45-71.24-11.88-4.12-24.95-7.84-39.15-11.14l-27.94-6.49,15.75-23.97c24.86-37.84,62.92-59.79,113.36-65.46l-17.32-10.28,31.89-16.59c36.01-18.74,72.34-28.24,107.97-28.24,40.05,0,79.86,11.97,118.53,35.61,35.26-21.76,65.64-28.32,92.75-34.18,25.63-5.54,47.76-10.32,70.81-27.32L565.24,0l11.62,17.53c15.38,23.2,22.77,47.44,21.98,72.03-.43,13.44-3.42,26.74-8.78,39.39,52.29,12.76,91.62,35.2,117.13,66.89l8.83,10.97-7.35,12.01c-6.22,10.16-15.2,19.15-26.81,26.87,12.25,23.03,18.59,46.42,18.46,68.58l-.14,23.2-22.93-3.56c-4.13-.64-8.46-1.62-12.97-2.75-1.16,16.34-4.27,30.68-9.39,43.31.78,5.52,1.18,11.07,1.18,16.56,0,49.9-30.86,96.04-86.91,129.95-52.9,32-122.82,49.63-196.87,49.63Z"/>
        <polygon class="cls-6" points="593.53 28.29 565.24 0 562.79 58.04 14.58 182.91 42.87 211.2 165.94 200.76 46.45 281.57 0 291.28 28.29 319.56 168.66 317.19 593.53 28.29"/>
      </g>
      <path class="cls-6" d="m653.41,414.87c15.97-20.3,20.88-48.39,19.45-80.93,13.89,2.97,26.22,7.01,35.76,8.49.15-25.34-9.97-51.89-26.35-75.96,17.06-7.65,30.03-17.37,37.64-29.81-26.78-33.26-70.96-55.09-132.68-65.38,24.47-32.37,28.23-73.72,1.25-114.42-55.2,40.7-104.45,20.19-175.33,69.23-69.49-46.85-141.85-52.75-217.36-13.46,18.11,10.75,34.08,21.11,46.11,30.77-78.13-10.79-134.63,6.22-166.55,54.81,36.07,8.38,63.19,18.82,83.75,30.77-43.32,12.26-76.16,41.14-101.62,81.73,13.76,6.16,31.38,8.7,51.75,8.65-9.03,21.47-7.7,46.99,0,75,9.78-4.78,18.23-8.92,23.52-11.54-4.42,35.32.34,62.69,16.94,79.8l503.73-47.75Z"/>
      <ellipse class="cls-5" cx="400.6" cy="419.32" rx="263.78" ry="159.57"/>
      <path class="cls-1" d="m415.41,290.38c0,52.74-48.65,95.5-108.68,95.5s-108.68-42.76-108.68-95.5h217.35Z"/>
      <path class="cls-1" d="m603.77,299.08c0,43.02-30.94,77.87-69.15,77.87s-69.15-34.85-69.15-77.87c0-2.95.14-5.86.44-8.7h137.41c.3,2.85.44,5.76.44,8.7Z"/>
      <circle class="cls-9" cx="321.87" cy="309.83" r="19.46"/>
      <path class="cls-4" d="m415.41,290.38h-217.35c0-52.74,48.65-95.5,108.68-95.5s108.68,42.76,108.68,95.5Z"/>
      <circle class="cls-9" cx="529.41" cy="307.51" r="17.13"/>
      <circle class="cls-11" cx="434.07" cy="296.3" r="5.37"/>
      <path class="cls-3" d="m603.33,290.38h-137.41c3.83-38.91,33.13-69.17,68.71-69.17s64.88,30.26,68.71,69.17Z"/>
      <circle class="cls-11" cx="383.98" cy="408.52" r="5.37"/>
      <circle class="cls-11" cx="447.97" cy="382.32" r="5.37"/>
      <g>
        <g class="cls-7">
          <path class="cls-8" d="m411.69,311.7l-7.82,46.93-.05.4c-3.15,24.52-21,37.51-32.92,39.07h-140.25c-18.86,0-28.93-16.96-32.11-32.92l-10.36-49.88c-1.08-5.16-.92-10.16.43-14.48,4.57-14.58,18.27-16.73,26.02-16.73h.11l163.97-2.5c21.2,0,28.82,2.01,32.24,13.69,1.44,4.96,1.69,10.64.72,16.44Z"/>
        </g>
        <g class="cls-7">
          <path class="cls-8" d="m625,302.41l-4.87,43.54c-1.09,9.65-3.35,18.7-6.74,26.9-2.85,6.84-6.42,13.36-18.77,18.07-5.92,2.23-12.46,3.38-19.43,3.38h-104.47c-11.37,0-24.33-15.77-24.33-29.6v-.38l-.02-.35-4.15-63.34c.11-12.16,6.54-18.3,19.07-18.3h.18l141.94-3.23c11.73.05,21.32,10.43,21.59,23.31Z"/>
        </g>
        <path class="cls-10" d="m599.52,272.57s-134.65,3.07-134.68,3.07c-5.54.13-11.1,1.04-15.95,4.17-7.25,4.67-12.39,17.34-21.3,18.38-2.45.29-4.9-.68-7.07-1.97-7.66-4.56-10.52-14.11-18.59-18.03-8.22-3.99-17.89-3.72-26.68-3.72l-157.27,2.4c-16.24,0-28.58,7.99-33.11,22.44-1.92,6.13-1.99,12.79-.67,19.11l9.94,47.82c4.43,22.25,18.55,38.96,39.2,38.96h134.94c14.71-1.62,35.94-16.92,39.64-45.64,1.43-11.14,1.73-27.37,12.63-32.75,4.94-2.44,11.19-1.61,15.18,2.41,2.61,2.63,4.13,6.36,4.87,10.17,1.59,8.15,1.12,17.2,1.66,25.51.42,6.4,2.16,11.99,5.29,17.48,5.58,9.78,15.31,18.45,26.25,18.45h99.06c7.21,0,14.43-1.14,21.25-3.73,14.34-5.44,19.33-13.74,22.83-22.18,3.69-8.96,6.01-18.52,7.11-28.28l4.69-41.93c0-17.76-13.07-32.14-29.2-32.14Zm-192.63,40.29l-7.5,44.99-.04.38c-3.02,23.51-20.13,35.96-31.56,37.46h-134.46c-18.08,0-27.74-16.26-30.78-31.56l-9.94-47.82c-1.04-4.94-.89-9.75.41-13.88,4.38-13.98,17.52-16.04,24.95-16.04h.11l157.21-2.4c20.33,0,27.63,1.93,30.91,13.12,1.38,4.75,1.62,10.2.69,15.76Zm208.57,32.61c-1.04,9.15-3.18,17.73-6.39,25.5-2.7,6.49-6.09,12.67-17.8,17.14-5.62,2.12-11.82,3.21-18.43,3.21h-99.06c-10.78,0-23.07-14.95-23.07-28.07v-.36l-.02-.33-3.93-60.06c.11-11.53,6.2-17.35,18.08-17.35h.17l134.59-3.07c11.12.05,20.22,9.89,20.48,22.1l-4.62,41.29Z"/>
      </g>
      <g>
        <path class="cls-2" d="m239.65,471.82c6.68-7.66,22.88-12.06,36.43-8.7,55.92,13.88,101.75,33.65,175.45,25.59"/>
        <path class="cls-2" d="m330.9,506.62c27.64,11.95,54.18,15.35,79.81,11.52"/>
      </g>
    </g>
  </g>
</svg>